<svg preserveAspectRatio="none" width="100%" height="100%" overflow="visible" style="display: block;" viewBox="0 0 19 19" fill="none" xmlns="http://www.w3.org/2000/svg">
<path id="shape" fill-rule="evenodd" clip-rule="evenodd" d="M12.0403 12.9569C10.7666 14.0241 9.125 14.6667 7.33333 14.6667C3.28325 14.6667 0 11.3834 0 7.33333C0 3.28325 3.28325 0 7.33333 0C11.3834 0 14.6667 3.28325 14.6667 7.33333C14.6667 8.93061 14.156 10.4086 13.289 11.613L18.713 17.037L17.4167 18.3333L12.0403 12.9569ZM12.8333 7.33333C12.8333 10.3709 10.3709 12.8333 7.33333 12.8333C4.29577 12.8333 1.83333 10.3709 1.83333 7.33333C1.83333 4.29577 4.29577 1.83333 7.33333 1.83333C10.3709 1.83333 12.8333 4.29577 12.8333 7.33333Z" fill="var(--fill-0, white)"/>
</svg>
