<svg preserveAspectRatio="none" width="100%" height="100%" overflow="visible" style="display: block;" viewBox="0 0 14 13" fill="none" xmlns="http://www.w3.org/2000/svg">
<path id="Union" fill-rule="evenodd" clip-rule="evenodd" d="M2.52073 0.0793152C3.76171 -0.191083 4.80644 0.264843 5.58843 0.917857C6.01528 1.2743 6.37769 1.69915 6.67502 2.12489C6.97856 1.70193 7.34818 1.28373 7.77854 0.93218C8.5618 0.292378 9.5999 -0.163079 10.8104 0.076711C12.0678 0.325874 12.8372 1.2686 13.1542 2.3482C13.4674 3.41513 13.3667 4.67359 12.8742 5.76291C11.9478 7.81159 9.65461 10.3744 7.07411 12.341L6.66981 12.649L6.26552 12.341C3.68451 10.374 1.39556 7.81129 0.469293 5.76291C-0.020238 4.68017 -0.138082 3.4351 0.169163 2.36968C0.481751 1.2858 1.25336 0.355524 2.52073 0.0793152ZM4.73362 1.94129C4.16479 1.46633 3.52829 1.22436 2.80458 1.38205C2.10745 1.53401 1.65474 2.02825 1.44976 2.73882C1.23948 3.468 1.31066 4.38817 1.68414 5.21408C2.44044 6.88649 4.35953 9.12402 6.66981 10.966C8.98089 9.12371 10.9032 6.88619 11.6594 5.21408C12.0299 4.39482 12.0921 3.46377 11.8749 2.72385C11.6614 1.9966 11.2064 1.51451 10.5513 1.38465C9.84919 1.24557 9.20426 1.4888 8.62164 1.96473C8.03176 2.44663 7.56021 3.12861 7.26617 3.71668L6.66981 4.90939L6.07346 3.71668C5.77439 3.11853 5.31399 2.42595 4.73362 1.94129Z" fill="var(--fill-0, #1A2B49)"/>
</svg>
