<svg preserveAspectRatio="none" width="100%" height="100%" overflow="visible" style="display: block;" viewBox="0 0 20 19" fill="none" xmlns="http://www.w3.org/2000/svg">
<path id="Vector" fill-rule="evenodd" clip-rule="evenodd" d="M3.78109 0.118973C5.64256 -0.286624 7.20966 0.397264 8.38265 1.37679C9.02291 1.91145 9.56653 2.54872 10.0125 3.18733C10.4678 2.5529 11.0223 1.9256 11.6678 1.39827C12.8427 0.438567 14.3999 -0.244619 16.2157 0.115066C18.1017 0.48881 19.2558 1.9029 19.7313 3.52229C20.2012 5.12269 20.0501 7.01039 19.3114 8.64436C17.9218 11.7174 14.4819 15.5616 10.6112 18.5116L10.0047 18.9735L9.39828 18.5116C5.52677 15.5611 2.09334 11.7169 0.703939 8.64436C-0.0303569 7.02025 -0.207123 5.15265 0.253744 3.55452C0.722626 1.92869 1.88004 0.533286 3.78109 0.118973ZM7.10042 2.91194C6.24719 2.19949 5.29243 1.83654 4.20687 2.07307C3.16117 2.30101 2.4821 3.04237 2.17464 4.10823C1.85922 5.202 1.96599 6.58225 2.5262 7.82112C3.66066 10.3297 6.5393 13.686 10.0047 16.4491C13.4713 13.6856 16.3549 10.3293 17.4891 7.82112C18.0448 6.59222 18.1382 5.19565 17.8123 4.08577C17.492 2.9949 16.8097 2.27176 15.827 2.07698C14.7738 1.86836 13.8064 2.2332 12.9325 2.9471C12.0476 3.66995 11.3403 4.69292 10.8993 5.57503L10.0047 7.36409L9.11019 5.57503C8.66159 4.6778 7.97099 3.63893 7.10042 2.91194Z" fill="var(--fill-0, #1A2B49)"/>
</svg>
