<svg preserveAspectRatio="none" width="100%" height="100%" overflow="visible" style="display: block;" viewBox="0 0 20 20" fill="none" xmlns="http://www.w3.org/2000/svg">
<path id="Icon" fill-rule="evenodd" clip-rule="evenodd" d="M5.54738 8.62741L6.66833 9.74833L5.5 10.94L4.95812 10.3972L2.63071 12.7226C1.34532 14.008 1.34532 16.092 2.63071 17.3774L2.81079 17.5447C4.10391 18.6601 6.05857 18.6044 7.28553 17.3774L9.61206 15.0512L9.03667 14.475L10.2033 13.2833L11.3807 14.4607C11.7061 14.7862 11.7061 15.3138 11.3807 15.6393L8.46405 18.5559C6.52778 20.4922 3.38847 20.4922 1.4522 18.5559C-0.484067 16.6197 -0.484067 13.4803 1.4522 11.5441L4.36887 8.62741C4.6943 8.30197 5.22194 8.30197 5.54738 8.62741ZM13.6997 5.14292C14.0268 4.92121 14.4755 4.95786 14.7618 5.25003C15.0482 5.5422 15.0758 5.99154 14.8476 6.31404L14.75 6.42848L10.5414 10.5533L6.42848 14.75L6.31404 14.8476C5.99154 15.0758 5.5422 15.0482 5.25003 14.7618C4.95786 14.4755 4.92121 14.0268 5.14292 13.6997L5.23819 13.5834L9.36297 9.37482L13.5834 5.23819L13.6997 5.14292ZM18.5559 1.4522C20.4922 3.38847 20.4922 6.52778 18.5559 8.46405L15.6393 11.3807C15.3138 11.7061 14.7862 11.7061 14.4607 11.3807L13.285 10.205L14.4767 9.03667L15.05 9.61089L17.3774 7.28553C18.6628 6.00014 18.6628 3.91611 17.3774 2.63071L17.1973 2.4634C15.9042 1.34797 13.9496 1.40375 12.7226 2.63071L10.3961 4.95694L10.94 5.50167L9.74833 6.66833L8.62741 5.54738C8.30197 5.22194 8.30197 4.6943 8.62741 4.36887L11.5441 1.4522C13.4803 -0.484067 16.6197 -0.484067 18.5559 1.4522Z" fill="var(--fill-0, #1971C2)"/>
</svg>
